<?xml version="1.0" standalone="no"?>
<!DOCTYPE svg PUBLIC "-//W3C//DTD SVG 20010904//EN"
 "http://www.w3.org/TR/2001/REC-SVG-20010904/DTD/svg10.dtd">
<svg version="1.0" xmlns="http://www.w3.org/2000/svg"
 width="270.000000pt" height="275.000000pt" viewBox="0 0 270.000000 275.000000"
 preserveAspectRatio="xMidYMid meet">

<g transform="translate(0.000000,275.000000) scale(0.100000,-0.100000)"
fill="#000000" stroke="none">
<path d="M1205 2271 c-182 -52 -327 -202 -370 -382 -79 -338 171 -659 515
-659 293 0 530 237 530 530 0 241 -164 455 -395 515 -77 20 -204 18 -280 -4z"/>
<path d="M895 1251 c-237 -138 -419 -426 -450 -713 l-7 -68 912 0 913 0 -7 64
c-21 203 -117 411 -260 564 -52 55 -158 138 -214 166 -32 17 -34 16 -63 -8
-41 -35 -161 -91 -229 -107 -70 -17 -209 -17 -280 0 -66 15 -211 84 -235 112
-23 24 -20 24 -80 -10z"/>
</g>
</svg>
